<mxfile host="app.diagrams.net" modified="2021-05-31T18:04:26.776Z" agent="5.0 (Windows)" etag="eZ_sqj5fUhBlG2PQFBNh" version="14.7.3" type="github">
  <diagram id="Rs5rr94gxkLq2ADsWazX">
    <mxGraphModel dx="868" dy="411" grid="1" gridSize="10" guides="1" tooltips="1" connect="1" arrows="1" fold="1" page="1" pageScale="1" pageWidth="827" pageHeight="1169" math="0" shadow="0">
      <root>
        <mxCell id="0" />
        <mxCell id="1" parent="0" />
      </root>
    </mxGraphModel>
  </diagram>
</mxfile>
